<svg width="50" height="49" xmlns="http://www.w3.org/2000/svg" xmlns:xlink="http://www.w3.org/1999/xlink" xml:space="preserve" overflow="hidden"><g transform="translate(-35 -401)"><path d="M6.14495 11.919C6.14495 10.7915 7.05902 9.87736 8.18661 9.87736L40.8333 9.87736C41.9609 9.87736 42.875 10.7915 42.875 11.919L42.875 35.0393C42.875 37.2945 41.0469 39.1226 38.7917 39.1226L10.2083 39.1226C7.95317 39.1226 6.125 37.2945 6.125 35.0393L6.125 12.581C6.125 12.4838 6.1318 12.3881 6.14495 12.2945L6.14495 11.919ZM10.2083 16.4592 10.2083 35.0393 38.7917 35.0393 38.7917 16.4599 28.8314 26.4202C26.4394 28.8122 22.5612 28.8122 20.1693 26.4202L10.2083 16.4592ZM13.4185 13.8946 35.5822 13.8946 25.9441 23.5329C25.1468 24.3301 23.854 24.3301 23.0567 23.5329L13.4185 13.8946Z" fill="#3C7363" fill-rule="evenodd" transform="matrix(1.02041 0 0 1 35 401)"/></g></svg>