<svg width="53" height="53" xmlns="http://www.w3.org/2000/svg" xmlns:xlink="http://www.w3.org/1999/xlink" xml:space="preserve" overflow="hidden"><g transform="translate(-29 -195)"><path d="M65.7318 226.109C65.7292 226.109 65.726 226.109 65.7234 226.109 65.4472 226.106 65.1926 225.96 65.0511 225.722L57.5209 213.076C57.4998 213.041 57.4818 213.004 57.4665 212.966 56.5275 211.425 56.0321 209.658 56.0321 207.847 56.0416 202.402 60.4758 197.977 65.9188 197.977 65.923 197.977 65.9267 197.977 65.9309 197.977 68.5732 197.981 71.0539 199.013 72.9161 200.882 74.7772 202.75 75.7997 205.233 75.796 207.874L75.796 207.874C75.796 209.658 75.3027 211.415 74.3679 212.966 74.3499 213.017 74.3262 213.065 74.2971 213.112L66.4042 225.737C66.2584 225.968 66.0043 226.109 65.7318 226.109ZM58.9553 212.388 65.7482 223.796 72.8654 212.412C72.8833 212.364 72.906 212.316 72.934 212.271 73.7695 210.937 74.2111 209.416 74.2111 207.873 74.2111 207.873 74.2111 207.873 74.2111 207.872 74.2148 205.654 73.356 203.569 71.7932 202 70.23 200.431 68.147 199.564 65.9288 199.561 65.9257 199.561 65.922 199.561 65.9183 199.561 61.3473 199.561 57.6239 203.276 57.6165 207.848 57.6165 209.408 58.0554 210.93 58.8851 212.249 58.9136 212.292 58.9368 212.339 58.9553 212.388Z" stroke="#3C7363" stroke-width="1.35419" fill="#3C7363"/><path d="M65.9214 211.558C65.9188 211.558 65.9162 211.558 65.913 211.558 64.7976 211.558 63.7471 211.123 62.9575 210.332 62.1669 209.539 61.7328 208.487 61.7349 207.368 61.736 206.253 62.1722 205.203 62.9633 204.414 63.7534 203.627 64.8023 203.193 65.9183 203.193 65.9193 203.193 65.9209 203.193 65.9225 203.193 68.2278 203.196 70.1022 205.075 70.1 207.382L70.1 207.382C70.099 208.499 69.6628 209.549 68.8716 210.338 68.082 211.125 67.0347 211.558 65.9214 211.558ZM65.9177 204.778C65.2248 204.778 64.5726 205.047 64.0819 205.537 63.5908 206.026 63.3198 206.678 63.3193 207.371 63.3183 208.066 63.5881 208.72 64.0793 209.212 64.5694 209.704 65.2217 209.974 65.9146 209.974 65.9162 209.974 65.9177 209.974 65.9198 209.974 66.6128 209.974 67.2629 209.705 67.753 209.217 68.2442 208.727 68.5151 208.075 68.5156 207.381 68.5167 205.948 67.3527 204.78 65.9204 204.778 65.9198 204.778 65.9188 204.778 65.9177 204.778ZM69.3078 207.382 69.3131 207.382 69.3078 207.382Z" stroke="#3C7363" stroke-width="1.35419" fill="#3C7363"/><path d="M78.8555 237.347 31.3983 237.347C31.1321 237.347 30.8839 237.213 30.737 236.991 30.5907 236.769 30.5654 236.488 30.67 236.243L39.3023 216.046C39.427 215.754 39.7138 215.565 40.0306 215.565L60.3998 215.565C60.8376 215.565 61.192 215.919 61.192 216.357 61.192 216.795 60.8376 217.149 60.3998 217.149L40.5535 217.149 32.5982 235.762 77.655 235.762 69.9453 217.726C69.7731 217.324 69.9601 216.858 70.3625 216.686 70.7634 216.514 71.2303 216.7 71.4024 217.103L79.5838 236.242C79.6883 236.487 79.663 236.768 79.5167 236.99 79.3699 237.213 79.1217 237.347 78.8555 237.347Z" stroke="#3C7363" stroke-width="1.35419" fill="#3C7363"/><path d="M65.8253 237.205C65.4282 237.205 65.0854 236.907 65.0394 236.502 65.0347 236.463 64.5287 232.565 59.0715 231.64 58.564 231.554 57.7543 231.475 56.8164 231.385 51.6517 230.885 46.9408 230.236 46.0324 227.821 45.4461 226.263 46.3028 225.075 46.9904 224.121 47.7435 223.076 47.9918 222.62 47.6073 221.965 47.3638 221.55 46.5885 221.212 45.8385 220.885 44.3703 220.245 42.3592 219.368 42.3486 216.965 42.3465 216.527 42.6998 216.171 43.1371 216.169 43.1382 216.169 43.1398 216.169 43.1408 216.169 43.5771 216.169 43.9309 216.521 43.933 216.958 43.9388 218.236 44.8964 218.745 46.4723 219.432 47.4546 219.861 48.4702 220.303 48.9746 221.164 49.9173 222.771 48.9688 224.087 48.2764 225.048 47.6268 225.949 47.2423 226.538 47.5159 227.264 48.1523 228.955 54.1076 229.531 56.9695 229.808 57.9376 229.902 58.7736 229.982 59.3366 230.078 65.9552 231.201 66.5901 236.115 66.6138 236.323 66.6635 236.758 66.3513 237.15 65.9167 237.2 65.886 237.203 65.8554 237.205 65.8253 237.205Z" stroke="#3C7363" stroke-width="1.35419" fill="#3C7363"/></g></svg>