<svg width="50" height="49" xmlns="http://www.w3.org/2000/svg" xmlns:xlink="http://www.w3.org/1999/xlink" xml:space="preserve" overflow="hidden"><g transform="translate(-35 -299)"><path d="M36.75 12.25C36.75 16.4784 29.8944 19.9062 21.4375 19.9062 12.9806 19.9062 6.125 16.4784 6.125 12.25 6.125 8.02157 12.9806 4.59375 21.4375 4.59375 29.8944 4.59375 36.75 8.02157 36.75 12.25Z" stroke="#3C7363" stroke-width="3.0625" stroke-linecap="round" stroke-linejoin="round" stroke-miterlimit="10" fill="none" transform="matrix(1.02041 0 0 1 35 299)"/><path d="M47.1625 32.4625C45.4781 32.7687 44.1 32.4625 43.4875 31.3906 42.875 30.3187 43.3344 28.7875 44.4062 27.5625 43.0281 26.1844 41.4969 25.2656 39.6594 24.8063 39.2 26.3375 38.1281 27.5625 36.9031 27.5625 35.6781 27.5625 34.6063 26.4906 34.1469 24.8063 32.3094 25.2656 30.625 26.1844 29.4 27.5625 30.4719 28.7875 30.9313 30.3187 30.3187 31.3906 29.7062 32.4625 28.175 32.7687 26.6437 32.4625 26.1844 33.3812 26.0312 34.3 26.0312 35.2188 26.0312 36.1375 26.1844 37.0563 26.3375 37.975 28.0219 37.6688 29.4 37.975 30.0125 39.0469 30.625 40.1188 30.1656 41.65 29.0938 42.875 30.4719 44.2531 32.0031 45.1719 33.8406 45.6312 34.3 44.1 35.3719 42.875 36.5969 42.875 37.8219 42.875 38.8937 43.9469 39.3531 45.6312 41.1906 45.1719 42.875 44.2531 44.1 42.875 43.0281 41.65 42.5687 40.1188 43.1813 39.0469 43.7938 37.975 45.325 37.6688 46.8563 37.975 47.1625 37.0563 47.1625 36.1375 47.1625 35.2188 47.1625 34.3 47.3156 33.3812 47.1625 32.4625Z" stroke="#3C7363" stroke-width="3.0625" stroke-linecap="round" stroke-linejoin="round" stroke-miterlimit="10" fill="none" transform="matrix(1.02041 0 0 1 35 299)"/><path d="M36.75 36.75C36.5969 36.75 36.2906 36.75 36.1375 36.5969 35.9844 36.4437 35.8312 36.4437 35.6781 36.2906 35.525 36.1375 35.3719 35.9844 35.3719 35.8312 35.3719 35.6781 35.2188 35.3719 35.2188 35.2188 35.2188 35.0656 35.2188 34.7594 35.3719 34.6063 35.525 34.4531 35.525 34.3 35.6781 34.1469 36.2906 33.5344 37.2094 33.5344 37.8219 34.1469 37.975 34.3 38.1281 34.4531 38.1281 34.6063 38.1281 34.7594 38.2812 35.0656 38.2812 35.2188 38.2812 35.3719 38.2812 35.6781 38.1281 35.8312 37.975 35.9844 37.975 36.1375 37.8219 36.2906 37.5156 36.5969 37.2094 36.75 36.75 36.75Z" stroke="#3C7363" stroke-width="1.53125" transform="matrix(1.02041 0 0 1 35 299)"/><path d="M35.6781 27.2562C36.2906 26.3375 36.75 25.4188 36.75 24.5L36.75 12.25" stroke="#3C7363" stroke-width="3.0625" stroke-linecap="round" stroke-linejoin="round" stroke-miterlimit="10" fill="none" transform="matrix(1.02041 0 0 1 35 299)"/><path d="M6.125 12.25 6.125 24.5C6.125 28.7875 13.0156 32.1562 21.4375 32.1562 24.6531 32.1562 27.5625 31.6969 30.0125 30.7781" stroke="#3C7363" stroke-width="3.0625" stroke-linecap="round" stroke-linejoin="round" stroke-miterlimit="10" fill="none" transform="matrix(1.02041 0 0 1 35 299)"/><path d="M6.125 24.5 6.125 36.75C6.125 41.0375 13.0156 44.4062 21.4375 44.4062 24.5 44.4062 27.2562 43.9469 29.5531 43.1813" stroke="#3C7363" stroke-width="3.0625" stroke-linecap="round" stroke-linejoin="round" stroke-miterlimit="10" fill="none" transform="matrix(1.02041 0 0 1 35 299)"/></g></svg>