<svg width="24" height="24" xmlns="http://www.w3.org/2000/svg" xmlns:xlink="http://www.w3.org/1999/xlink" xml:space="preserve" overflow="hidden"><g transform="translate(-328 -172)"><path d="M344.272 182.272C344.272 184.481 342.481 186.272 340.272 186.272 338.063 186.272 336.272 184.481 336.272 182.272 336.272 180.063 338.063 178.272 340.272 178.272 342.481 178.272 344.272 180.063 344.272 182.272ZM342.272 182.272C342.272 183.377 341.377 184.272 340.272 184.272 339.168 184.272 338.272 183.377 338.272 182.272 338.272 181.168 339.168 180.272 340.272 180.272 341.377 180.272 342.272 181.168 342.272 182.272Z" fill="#0070C0" fill-rule="evenodd"/><path d="M333.794 188.518C330.194 185.091 330.054 179.394 333.482 175.794 336.909 172.194 342.606 172.054 346.206 175.482 349.806 178.909 349.946 184.606 346.518 188.206L340.312 194.724 333.794 188.518ZM345.07 186.827 340.243 191.896 335.173 187.07C332.373 184.404 332.265 179.973 334.93 177.173 337.596 174.373 342.027 174.265 344.827 176.93 347.627 179.596 347.736 184.027 345.07 186.827Z" fill="#0070C0" fill-rule="evenodd"/></g></svg>