<svg width="24" height="24" xmlns="http://www.w3.org/2000/svg" xmlns:xlink="http://www.w3.org/1999/xlink" xml:space="preserve" overflow="hidden"><g transform="translate(-944 -172)"><path d="M947.01 177.838C947.01 177.286 947.457 176.838 948.01 176.838L964 176.838C964.552 176.838 965 177.286 965 177.838L965 189.162C965 190.267 964.105 191.162 963 191.162L949 191.162C947.895 191.162 947 190.267 947 189.162L947 178.162C947 178.114 947.003 178.068 947.01 178.022L947.01 177.838ZM949 180.062 949 189.162 963 189.162 963 180.062 958.122 184.941C956.95 186.112 955.05 186.112 953.879 184.941L949 180.062ZM950.572 178.806 961.428 178.806 956.707 183.526C956.317 183.917 955.684 183.917 955.293 183.526L950.572 178.806Z" fill="#70AD47" fill-rule="evenodd"/></g></svg>