<svg width="41" height="41" xmlns="http://www.w3.org/2000/svg" xmlns:xlink="http://www.w3.org/1999/xlink" xml:space="preserve" overflow="hidden"><g transform="translate(-34 -612)"><path d="M54.5 650.966C64.6705 650.966 72.9341 642.702 72.9341 632.532 72.9341 622.361 64.6705 614.098 54.5 614.098 44.3295 614.098 36.0341 622.361 36.0341 632.532 36.0341 642.702 44.3295 650.966 54.5 650.966ZM54.5 616.64C63.2403 616.64 70.3597 623.76 70.3597 632.5 70.3597 641.24 63.2403 648.36 54.5 648.36 45.7597 648.36 38.6403 641.24 38.6403 632.5 38.6403 623.76 45.7597 616.64 54.5 616.64Z" fill="#3C7363"/><path d="M51.4171 640.636C50.686 640.636 50.114 641.209 50.114 641.94 50.114 642.671 50.686 643.243 51.4171 643.243L59.9667 643.243C60.6977 643.243 61.2698 642.671 61.2698 641.94 61.2698 641.209 60.6977 640.636 59.9667 640.636L56.9791 640.636 56.9791 629.163C56.9791 628.432 56.407 627.86 55.676 627.86L51.4171 627.86C50.686 627.86 50.114 628.432 50.114 629.163 50.114 629.894 50.686 630.466 51.4171 630.466L54.4046 630.466 54.4046 640.636 51.4171 640.636Z" fill="#3C7363"/><path d="M56.0256 623.601C56.0256 624.759 55.0864 625.698 53.9279 625.698 52.7694 625.698 51.8302 624.759 51.8302 623.601 51.8302 622.442 52.7694 621.503 53.9279 621.503 55.0864 621.503 56.0256 622.442 56.0256 623.601Z" fill="#3C7363"/></g></svg>