<svg width="27" height="26" xmlns="http://www.w3.org/2000/svg" xmlns:xlink="http://www.w3.org/1999/xlink" xml:space="preserve" overflow="hidden"><g transform="translate(-634 -172)"><path d="M14.0833 13.8984C15.3456 13.4523 16.25 12.2484 16.25 10.8333 16.25 9.03841 14.795 7.58333 13 7.58333 11.205 7.58333 9.75 9.03841 9.75 10.8333 9.75 12.2484 10.6544 13.4523 11.9167 13.8984L11.9167 17.3333C11.9167 17.9317 12.4017 18.4167 13 18.4167 13.5983 18.4167 14.0833 17.9317 14.0833 17.3333L14.0833 13.8984ZM11.9167 10.8333C11.9167 11.4317 12.4017 11.9167 13 11.9167 13.5983 11.9167 14.0833 11.4317 14.0833 10.8333 14.0833 10.235 13.5983 9.75 13 9.75 12.4017 9.75 11.9167 10.235 11.9167 10.8333Z" fill="#ED7D31" fill-rule="evenodd" transform="matrix(1.03846 0 0 1 634 172)"/><path d="M13 2.16667C7.01691 2.16667 2.16667 7.01691 2.16667 13 2.16667 18.983 7.01691 23.8333 13 23.8333 18.983 23.8333 23.8333 18.983 23.8333 13 23.8333 7.01691 18.983 2.16667 13 2.16667ZM4.33333 13C4.33333 17.7865 8.21353 21.6667 13 21.6667 17.7865 21.6667 21.6667 17.7865 21.6667 13 21.6667 8.21353 17.7865 4.33333 13 4.33333 8.21353 4.33333 4.33333 8.21353 4.33333 13Z" fill="#ED7D31" fill-rule="evenodd" transform="matrix(1.03846 0 0 1 634 172)"/></g></svg>