<svg width="48" height="38" xmlns="http://www.w3.org/2000/svg" xmlns:xlink="http://www.w3.org/1999/xlink" xml:space="preserve" overflow="hidden"><g transform="translate(-32 -96)"><path d="M33.25 13.8893 22.1996 2.8389C20.3446 0.983906 17.337 0.983904 15.4821 2.8389L4.75 13.571 4.75 36.5525 15.8333 36.5525 15.8333 27.0525C15.8333 25.3036 17.2511 23.8859 19 23.8859 20.749 23.8859 22.1667 25.3036 22.1667 27.0525L22.1667 36.5525 33.25 36.5525 33.25 13.8893ZM17.7213 5.07807 7.91667 14.8827 7.91667 33.3859 12.6667 33.3859 12.6667 27.0525C12.6667 23.5548 15.5022 20.7192 19 20.7192 22.4977 20.7192 25.3333 23.5548 25.3333 27.0525L25.3333 33.3859 30.0833 33.3859 30.0833 15.201 19.9605 5.07807C19.3422 4.45974 18.3396 4.45974 17.7213 5.07807Z" fill="#3C7363" fill-rule="evenodd" transform="matrix(1.26316 0 0 1 32 96)"/></g></svg>